+15_ID_stride4.mot
nRows=7
nColumns=38

name +15_ID_stride4.mot
datacolumns 38
datarows 7
range 1.4300000000 1.4600000000
endheader
time	pelvis_tilt_moment	pelvis_list_moment	pelvis_rotation_moment	pelvis_tx_force	pelvis_ty_force	pelvis_tz_force	hip_flexion_r_moment	hip_adduction_r_moment	hip_rotation_r_moment	knee_angle_r_moment	ankle_angle_r_moment	subtalar_angle_r_moment	mtp_angle_r_moment	hip_flexion_l_moment	hip_adduction_l_moment	hip_rotation_l_moment	knee_angle_l_moment	ankle_angle_l_moment	subtalar_angle_l_moment	mtp_angle_l_moment	lumbar_extension_moment	lumbar_bending_moment	lumbar_rotation_moment	arm_flex_r_moment	arm_add_r_moment	arm_rot_r_moment	elbow_flex_r_moment	pro_sup_r_moment	wrist_flex_r_moment	wrist_dev_r_moment	arm_flex_l_moment	arm_add_l_moment	arm_rot_l_moment	elbow_flex_l_moment	pro_sup_l_moment	wrist_flex_l_moment	wrist_dev_l_moment
        1.4300000000	      -21.6074406059	       30.8679826887	       35.1207939215	       29.2650474617	      464.9838409063	      127.7771679560	       82.4948890358	      -10.2942116804	        1.5289853795	       33.6447451749	        4.3035984588	       -0.5272561089	        0.1883549103	      -59.3214344240	      -16.1264214611	      -11.3626926522	      -13.1263636865	       13.0958721805	       -7.0127525879	        0.2432870470	       45.4875593147	       22.9414701794	       -2.5894681862	       -1.8541093934	       -0.0209559112	        0.0384567607	        2.4967336384	       -0.0512395314	        0.0575602622	       -0.2093983551	       -1.5805579437	        1.7453436649	        1.1085229835	        2.5312000146	       -0.0196139080	        0.1587651860	       -0.1914449334	
        1.4350000000	      -47.0846849812	       82.0277629805	       35.0740961511	       23.0420236918	      440.0186510496	       62.2727588653	       81.3400343150	       -8.2087095228	        1.2923649822	       33.5011543712	        4.3723245162	       -0.4872344415	        0.2038360795	      -21.7786760526	      -45.8885823767	       -3.3854025171	       15.8158298976	       11.2988041581	       -3.0381862643	        0.2824984479	       47.3319284536	       27.5471201625	       -0.9884887950	       -2.1877000376	       -0.1021154154	        0.1297097186	        2.7096466702	       -0.0518958440	        0.0757821465	       -0.2186838149	       -2.3176048618	        1.9606589826	        1.1897467569	        2.7332670072	       -0.0231245237	        0.1653730285	       -0.2024217951	
        1.4400000000	      -69.5319784792	      113.2787754374	       34.4079398867	        2.5413412573	      314.1029357969	      -30.5873123462	       82.2148863291	       -4.9146817051	        0.6975884738	       33.5743514402	        4.4469310015	       -0.4422657675	        0.2168524384	       -5.3570237221	      -75.9578747517	        4.1998231081	       32.8330172283	       -0.8947691008	        2.1941239392	        0.3011770840	       47.0919947012	       29.8281344362	        0.0311477296	       -2.2492350200	       -0.2171067416	        0.1490122068	        2.8331173990	       -0.0541247081	        0.0828502543	       -0.2239135469	       -2.5546043551	        2.1428814760	        1.2349951974	        2.8513750372	       -0.0253909458	        0.1685513386	       -0.2083457698	
        1.4450000000	      -81.5240481580	      117.2535268556	       35.5113997161	      -24.7838084848	      143.4887142814	     -102.9234026180	       84.9159037826	       -0.5888782940	       -0.2138930414	       34.0398419861	        4.4924866627	       -0.3832933542	        0.2256953075	      -18.1144344566	      -96.5261983420	        7.3902735857	       35.9796146334	      -22.4622517500	        6.0831195306	        0.3031045505	       42.2430549011	       30.0520602950	        0.7048750899	       -2.0102850655	       -0.2545006172	        0.1513546837	        2.8735254993	       -0.0550396629	        0.0851347722	       -0.2244543778	       -2.4730758058	        2.2014816489	        1.2153781311	        2.8898643903	       -0.0276545094	        0.1643531000	       -0.2097874401	
        1.4500000000	      -73.9610949670	       80.4876660650	       41.3708815221	      -51.7776989726	      -34.1449867912	     -120.9130193540	       85.7213871224	        4.5507243813	       -1.3964201413	       34.4174331027	        4.4558188107	       -0.3032496124	        0.2291113988	      -63.0075770035	      -99.1840912007	       -0.9425398385	       24.2611500278	      -48.3176358951	        5.5805481810	        0.2790230297	       36.3425654324	       27.5838349225	        1.3935862581	       -1.7214946082	       -0.0958000999	        0.2422265801	        2.8640220506	       -0.0526880807	        0.0926578430	       -0.2174342825	       -2.2839410614	        2.0201754482	        1.0784447769	        2.8772595941	       -0.0316869007	        0.1497322772	       -0.2087310471	
        1.4550000000	      -55.7886864276	       26.4604003268	       50.2998355177	      -67.8362744055	     -176.2695565978	     -111.9865552938	       85.0831548128	       10.0624770337	       -2.6986725795	       34.4579803434	        4.3644608931	       -0.2085151203	        0.2289560919	     -117.6647934860	      -95.2078522523	      -16.8976607677	       11.8463346016	      -73.3423574232	        3.4134586314	        0.2380499904	       32.4256510666	       24.1386544752	        2.2150504124	       -1.5021915219	        0.1895637463	        0.4101460305	        2.8845674398	       -0.0494148011	        0.1067969019	       -0.2151770355	       -2.2264081733	        1.7152333478	        0.8806548018	        2.8956395481	       -0.0378048821	        0.1307291724	       -0.2104740027	
        1.4600000000	      -22.7161317988	      -24.8947552527	       60.1161850867	      -72.8387507755	     -257.1685688454	      -54.7825943080	       81.0102063681	       15.6147176757	       -4.0093112350	       34.1337081319	        4.1847037066	       -0.1038392901	        0.2247179515	     -162.3323604930	      -73.4984228392	      -39.2396563530	        6.8505545877	      -94.5374249956	       -2.0431107637	        0.1837160971	       31.1497553442	       22.0098116442	        3.1022649027	       -1.3433544901	        0.5484294939	        0.6242725568	        3.0543085797	       -0.0476796164	        0.1293624757	       -0.2198842911	       -2.2232120442	        1.4379170144	        0.7005670415	        3.0609583775	       -0.0468217571	        0.1190220750	       -0.2254095739	
